REM DIRINDEX 1\2\4\18,1\2\4\19,1\2\5\20,1\2\5\21,1\2\6\22,1\2\7\23,1\2\8\24,1\2\8\25,1\2\9\26,1\2\10\27,1\3\11\28,1\3\11\29,1\3\11\30,1\3\11\31,1\3\12\32,1\3\12\33,1\3\12\34,1\3\12\35,1\3\13\36,1\3\13\37,1\3\14\38,1\3\14\39,1\3\15\40,1\3\15\41,1\3\15\42,1\3\16\43,1\3\16\44,1\3\17\45,1\3\17\46
REM DIRNAME cjc023,folder01,folder02,folder03,folder04,folder05,folder06,folder07,folder08,folder09,folder10,folder11,folder12,folder13,folder14,folder15,folder16,folder17,folder18,folder19,folder20,folder21,folder22,folder23,folder24,folder25,folder26,folder27,folder28,folder29,folder30,folder31,folder32,folder33,folder34,folder35,folder36,folder37,folder38,folder39,folder40,folder41,folder42,folder43,folder44,folder45
TITLE ""
FILE "15.mp3" MP3
  TRACK 01 AUDIO
    TITLE "0:"
    INDEX 01 00:00:00
  TRACK 02 AUDIO
    TITLE "28:cjc023_7651"
    INDEX 01 00:00:15
  TRACK 03 AUDIO
    TITLE "0:"
    INDEX 01 00:01:42
  TRACK 04 AUDIO
    TITLE "29:cjc023_7652"
    INDEX 01 00:02:16
  TRACK 05 AUDIO
    TITLE "0:"
    INDEX 01 00:04:09
  TRACK 06 AUDIO
    TITLE "30:cjc023_7653"
    INDEX 01 00:04:35
  TRACK 07 AUDIO
    TITLE "0:"
    INDEX 01 00:06:35
  TRACK 08 AUDIO
    TITLE "31:cjc023_7654"
    INDEX 01 00:06:65
  TRACK 09 AUDIO
    TITLE "0:"
    INDEX 01 00:08:66
  TRACK 10 AUDIO
    TITLE "28:cjc023_7655"
    INDEX 01 00:09:73
  TRACK 11 AUDIO
    TITLE "0:"
    INDEX 01 00:11:15
  TRACK 12 AUDIO
    TITLE "29:cjc023_7656"
    INDEX 01 00:11:66
  TRACK 13 AUDIO
    TITLE "0:"
    INDEX 01 00:14:27
  TRACK 14 AUDIO
    TITLE "30:cjc023_7657"
    INDEX 01 00:14:53
  TRACK 15 AUDIO
    TITLE "0:"
    INDEX 01 00:17:00
  TRACK 16 AUDIO
    TITLE "31:cjc023_7658"
    INDEX 01 00:17:25
  TRACK 17 AUDIO
    TITLE "0:"
    INDEX 01 00:19:48
  TRACK 18 AUDIO
    TITLE "28:cjc023_7659"
    INDEX 01 00:20:43
  TRACK 19 AUDIO
    TITLE "0:"
    INDEX 01 00:21:68
  TRACK 20 AUDIO
    TITLE "29:cjc023_7660"
    INDEX 01 00:22:42
  TRACK 21 AUDIO
    TITLE "0:"
    INDEX 01 00:23:69
  TRACK 22 AUDIO
    TITLE "30:cjc023_7661"
    INDEX 01 00:24:18
  TRACK 23 AUDIO
    TITLE "0:"
    INDEX 01 00:26:11
  TRACK 24 AUDIO
    TITLE "31:cjc023_7662"
    INDEX 01 00:26:34
  TRACK 25 AUDIO
    TITLE "0:"
    INDEX 01 00:28:29
  TRACK 26 AUDIO
    TITLE "28:cjc023_7663"
    INDEX 01 00:29:31
  TRACK 27 AUDIO
    TITLE "0:"
    INDEX 01 00:30:44
  TRACK 28 AUDIO
    TITLE "29:cjc023_7664"
    INDEX 01 00:31:20
  TRACK 29 AUDIO
    TITLE "0:"
    INDEX 01 00:34:51
  TRACK 30 AUDIO
    TITLE "30:cjc023_7665"
    INDEX 01 00:35:00
  TRACK 31 AUDIO
    TITLE "0:"
    INDEX 01 00:37:54
  TRACK 32 AUDIO
    TITLE "31:cjc023_7666"
    INDEX 01 00:38:04
  TRACK 33 AUDIO
    TITLE "0:"
    INDEX 01 00:40:54
  TRACK 34 AUDIO
    TITLE "28:cjc023_7667"
    INDEX 01 00:41:53
  TRACK 35 AUDIO
    TITLE "0:"
    INDEX 01 00:42:74
  TRACK 36 AUDIO
    TITLE "29:cjc023_7668"
    INDEX 01 00:43:46
  TRACK 37 AUDIO
    TITLE "0:"
    INDEX 01 00:47:32
  TRACK 38 AUDIO
    TITLE "30:cjc023_7669"
    INDEX 01 00:47:54
  TRACK 39 AUDIO
    TITLE "0:"
    INDEX 01 00:50:66
  TRACK 40 AUDIO
    TITLE "31:cjc023_7670"
    INDEX 01 00:51:15
  TRACK 41 AUDIO
    TITLE "0:"
    INDEX 01 00:54:27
  TRACK 42 AUDIO
    TITLE "28:cjc023_7671"
    INDEX 01 00:55:24
  TRACK 43 AUDIO
    TITLE "0:"
    INDEX 01 00:56:41
  TRACK 44 AUDIO
    TITLE "29:cjc023_7672"
    INDEX 01 00:57:15
  TRACK 45 AUDIO
    TITLE "0:"
    INDEX 01 01:00:51
  TRACK 46 AUDIO
    TITLE "30:cjc023_7673"
    INDEX 01 01:00:74
  TRACK 47 AUDIO
    TITLE "0:"
    INDEX 01 01:04:11
  TRACK 48 AUDIO
    TITLE "31:cjc023_7674"
    INDEX 01 01:04:35
  TRACK 49 AUDIO
    TITLE "0:"
    INDEX 01 01:07:45
  TRACK 50 AUDIO
    TITLE "28:cjc023_7675"
    INDEX 01 01:08:44
  TRACK 51 AUDIO
    TITLE "0:"
    INDEX 01 01:09:69
  TRACK 52 AUDIO
    TITLE "29:cjc023_7676"
    INDEX 01 01:10:45
  TRACK 53 AUDIO
    TITLE "0:"
    INDEX 01 01:12:48
  TRACK 54 AUDIO
    TITLE "30:cjc023_7677"
    INDEX 01 01:12:71
  TRACK 55 AUDIO
    TITLE "0:"
    INDEX 01 01:15:27
  TRACK 56 AUDIO
    TITLE "31:cjc023_7678"
    INDEX 01 01:15:50
  TRACK 57 AUDIO
    TITLE "0:"
    INDEX 01 01:18:06
  TRACK 58 AUDIO
    TITLE "28:cjc023_7679"
    INDEX 01 01:19:01
  TRACK 59 AUDIO
    TITLE "0:"
    INDEX 01 01:20:12
  TRACK 60 AUDIO
    TITLE "29:cjc023_7680"
    INDEX 01 01:20:59
  TRACK 61 AUDIO
    TITLE "0:"
    INDEX 01 01:22:72
  TRACK 62 AUDIO
    TITLE "30:cjc023_7681"
    INDEX 01 01:23:18
  TRACK 63 AUDIO
    TITLE "0:"
    INDEX 01 01:25:45
  TRACK 64 AUDIO
    TITLE "31:cjc023_7682"
    INDEX 01 01:25:66
  TRACK 65 AUDIO
    TITLE "0:"
    INDEX 01 01:28:18
  TRACK 66 AUDIO
    TITLE "28:cjc023_7683"
    INDEX 01 01:29:15
  TRACK 67 AUDIO
    TITLE "0:"
    INDEX 01 01:30:17
  TRACK 68 AUDIO
    TITLE "29:cjc023_7684"
    INDEX 01 01:30:67
  TRACK 69 AUDIO
    TITLE "0:"
    INDEX 01 01:32:23
  TRACK 70 AUDIO
    TITLE "30:cjc023_7685"
    INDEX 01 01:32:47
  TRACK 71 AUDIO
    TITLE "0:"
    INDEX 01 01:34:36
  TRACK 72 AUDIO
    TITLE "31:cjc023_7686"
    INDEX 01 01:34:59
  TRACK 73 AUDIO
    TITLE "0:"
    INDEX 01 01:36:48
  TRACK 74 AUDIO
    TITLE "28:cjc023_7687"
    INDEX 01 01:37:48
  TRACK 75 AUDIO
    TITLE "0:"
    INDEX 01 01:38:53
  TRACK 76 AUDIO
    TITLE "29:cjc023_7688"
    INDEX 01 01:39:29
  TRACK 77 AUDIO
    TITLE "0:"
    INDEX 01 01:41:36
  TRACK 78 AUDIO
    TITLE "30:cjc023_7689"
    INDEX 01 01:41:59
  TRACK 79 AUDIO
    TITLE "0:"
    INDEX 01 01:43:72
  TRACK 80 AUDIO
    TITLE "31:cjc023_7690"
    INDEX 01 01:44:19
  TRACK 81 AUDIO
    TITLE "0:"
    INDEX 01 01:46:29
  TRACK 82 AUDIO
    TITLE "28:cjc023_7691"
    INDEX 01 01:47:29
  TRACK 83 AUDIO
    TITLE "0:"
    INDEX 01 01:48:48
  TRACK 84 AUDIO
    TITLE "29:cjc023_7692"
    INDEX 01 01:49:14
  TRACK 85 AUDIO
    TITLE "0:"
    INDEX 01 01:51:68
  TRACK 86 AUDIO
    TITLE "30:cjc023_7693"
    INDEX 01 01:52:16
  TRACK 87 AUDIO
    TITLE "0:"
    INDEX 01 01:54:60
  TRACK 88 AUDIO
    TITLE "31:cjc023_7694"
    INDEX 01 01:55:07
  TRACK 89 AUDIO
    TITLE "0:"
    INDEX 01 01:57:51
  TRACK 90 AUDIO
    TITLE "28:cjc023_7695"
    INDEX 01 01:58:44
  TRACK 91 AUDIO
    TITLE "0:"
    INDEX 01 01:59:59
  TRACK 92 AUDIO
    TITLE "29:cjc023_7696"
    INDEX 01 02:00:39
  TRACK 93 AUDIO
    TITLE "0:"
    INDEX 01 02:03:00
  TRACK 94 AUDIO
    TITLE "30:cjc023_7697"
    INDEX 01 02:03:28
  TRACK 95 AUDIO
    TITLE "0:"
    INDEX 01 02:05:15
  TRACK 96 AUDIO
    TITLE "31:cjc023_7698"
    INDEX 01 02:05:38
  TRACK 97 AUDIO
    TITLE "0:"
    INDEX 01 02:07:26
  TRACK 98 AUDIO
    TITLE "28:cjc023_7699"
    INDEX 01 02:08:21
  TRACK 99 AUDIO
    TITLE "0:"
    INDEX 01 02:09:36
  TRACK 100 AUDIO
    TITLE "29:cjc023_7700"
    INDEX 01 02:10:12
  TRACK 101 AUDIO
    TITLE "0:"
    INDEX 01 02:12:36
  TRACK 102 AUDIO
    TITLE "30:cjc023_7701"
    INDEX 01 02:12:60
  TRACK 103 AUDIO
    TITLE "0:"
    INDEX 01 02:15:09
  TRACK 104 AUDIO
    TITLE "31:cjc023_7702"
    INDEX 01 02:15:33
  TRACK 105 AUDIO
    TITLE "0:"
    INDEX 01 02:17:57
  TRACK 106 AUDIO
    TITLE "28:cjc023_7703"
    INDEX 01 02:18:55
  TRACK 107 AUDIO
    TITLE "0:"
    INDEX 01 02:19:66
  TRACK 108 AUDIO
    TITLE "29:cjc023_7704"
    INDEX 01 02:20:34
  TRACK 109 AUDIO
    TITLE "0:"
    INDEX 01 02:23:25
  TRACK 110 AUDIO
    TITLE "30:cjc023_7705"
    INDEX 01 02:23:46
  TRACK 111 AUDIO
    TITLE "0:"
    INDEX 01 02:26:03
  TRACK 112 AUDIO
    TITLE "31:cjc023_7706"
    INDEX 01 02:26:25
  TRACK 113 AUDIO
    TITLE "0:"
    INDEX 01 02:28:57
  TRACK 114 AUDIO
    TITLE "28:cjc023_7707"
    INDEX 01 02:29:53
  TRACK 115 AUDIO
    TITLE "0:"
    INDEX 01 02:30:60
  TRACK 116 AUDIO
    TITLE "29:cjc023_7708"
    INDEX 01 02:31:32
  TRACK 117 AUDIO
    TITLE "0:"
    INDEX 01 02:34:18
  TRACK 118 AUDIO
    TITLE "30:cjc023_7709"
    INDEX 01 02:34:40
  TRACK 119 AUDIO
    TITLE "0:"
    INDEX 01 02:36:66
  TRACK 120 AUDIO
    TITLE "31:cjc023_7710"
    INDEX 01 02:37:11
  TRACK 121 AUDIO
    TITLE "0:"
    INDEX 01 02:39:39
  TRACK 122 AUDIO
    TITLE "28:cjc023_7711"
    INDEX 01 02:40:35
  TRACK 123 AUDIO
    TITLE "0:"
    INDEX 01 02:41:56
  TRACK 124 AUDIO
    TITLE "29:cjc023_7712"
    INDEX 01 02:42:30
  TRACK 125 AUDIO
    TITLE "0:"
    INDEX 01 02:44:48
  TRACK 126 AUDIO
    TITLE "30:cjc023_7713"
    INDEX 01 02:44:72
  TRACK 127 AUDIO
    TITLE "0:"
    INDEX 01 02:47:29
  TRACK 128 AUDIO
    TITLE "31:cjc023_7714"
    INDEX 01 02:47:52
  TRACK 129 AUDIO
    TITLE "0:"
    INDEX 01 02:50:08
  TRACK 130 AUDIO
    TITLE "28:cjc023_7715"
    INDEX 01 02:51:07
  TRACK 131 AUDIO
    TITLE "0:"
    INDEX 01 02:52:36
  TRACK 132 AUDIO
    TITLE "29:cjc023_7716"
    INDEX 01 02:53:06
  TRACK 133 AUDIO
    TITLE "0:"
    INDEX 01 02:55:36
  TRACK 134 AUDIO
    TITLE "30:cjc023_7717"
    INDEX 01 02:55:60
  TRACK 135 AUDIO
    TITLE "0:"
    INDEX 01 02:57:41
  TRACK 136 AUDIO
    TITLE "31:cjc023_7718"
    INDEX 01 02:57:65
  TRACK 137 AUDIO
    TITLE "0:"
    INDEX 01 02:59:48
  TRACK 138 AUDIO
    TITLE "28:cjc023_7719"
    INDEX 01 03:00:45
  TRACK 139 AUDIO
    TITLE "0:"
    INDEX 01 03:01:62
  TRACK 140 AUDIO
    TITLE "29:cjc023_7720"
    INDEX 01 03:02:34
  TRACK 141 AUDIO
    TITLE "0:"
    INDEX 01 03:04:69
  TRACK 142 AUDIO
    TITLE "30:cjc023_7721"
    INDEX 01 03:05:15
  TRACK 143 AUDIO
    TITLE "0:"
    INDEX 01 03:07:57
  TRACK 144 AUDIO
    TITLE "31:cjc023_7722"
    INDEX 01 03:08:02
  TRACK 145 AUDIO
    TITLE "0:"
    INDEX 01 03:10:42
  TRACK 146 AUDIO
    TITLE "28:cjc023_7723"
    INDEX 01 03:11:39
  TRACK 147 AUDIO
    TITLE "0:"
    INDEX 01 03:12:52
  TRACK 148 AUDIO
    TITLE "29:cjc023_7724"
    INDEX 01 03:13:24
  TRACK 149 AUDIO
    TITLE "0:"
    INDEX 01 03:14:69
  TRACK 150 AUDIO
    TITLE "30:cjc023_7725"
    INDEX 01 03:15:17
  TRACK 151 AUDIO
    TITLE "0:"
    INDEX 01 03:16:62
  TRACK 152 AUDIO
    TITLE "31:cjc023_7726"
    INDEX 01 03:17:09
  TRACK 153 AUDIO
    TITLE "0:"
    INDEX 01 03:18:53
  TRACK 154 AUDIO
    TITLE "28:cjc023_7727"
    INDEX 01 03:19:52
  TRACK 155 AUDIO
    TITLE "0:"
    INDEX 01 03:21:02
  TRACK 156 AUDIO
    TITLE "29:cjc023_7728"
    INDEX 01 03:21:47
  TRACK 157 AUDIO
    TITLE "0:"
    INDEX 01 03:25:59
  TRACK 158 AUDIO
    TITLE "30:cjc023_7729"
    INDEX 01 03:26:09
  TRACK 159 AUDIO
    TITLE "0:"
    INDEX 01 03:28:63
  TRACK 160 AUDIO
    TITLE "31:cjc023_7730"
    INDEX 01 03:29:08
  TRACK 161 AUDIO
    TITLE "0:"
    INDEX 01 03:31:60
  TRACK 162 AUDIO
    TITLE "28:cjc023_7731"
    INDEX 01 03:32:55
  TRACK 163 AUDIO
    TITLE "0:"
    INDEX 01 03:33:66
  TRACK 164 AUDIO
    TITLE "29:cjc023_7732"
    INDEX 01 03:34:36
  TRACK 165 AUDIO
    TITLE "0:"
    INDEX 01 03:37:27
  TRACK 166 AUDIO
    TITLE "30:cjc023_7733"
    INDEX 01 03:37:50
  TRACK 167 AUDIO
    TITLE "0:"
    INDEX 01 03:39:34
  TRACK 168 AUDIO
    TITLE "31:cjc023_7734"
    INDEX 01 03:39:57
  TRACK 169 AUDIO
    TITLE "0:"
    INDEX 01 03:41:42
  TRACK 170 AUDIO
    TITLE "28:cjc023_7735"
    INDEX 01 03:42:40
  TRACK 171 AUDIO
    TITLE "0:"
    INDEX 01 03:43:51
  TRACK 172 AUDIO
    TITLE "29:cjc023_7736"
    INDEX 01 03:44:25
  TRACK 173 AUDIO
    TITLE "0:"
    INDEX 01 03:46:42
  TRACK 174 AUDIO
    TITLE "30:cjc023_7737"
    INDEX 01 03:46:65
  TRACK 175 AUDIO
    TITLE "0:"
    INDEX 01 03:48:44
  TRACK 176 AUDIO
    TITLE "31:cjc023_7738"
    INDEX 01 03:48:70
  TRACK 177 AUDIO
    TITLE "0:"
    INDEX 01 03:50:51
  TRACK 178 AUDIO
    TITLE "28:cjc023_7739"
    INDEX 01 03:51:56
  TRACK 179 AUDIO
    TITLE "0:"
    INDEX 01 03:52:70
  TRACK 180 AUDIO
    TITLE "29:cjc023_7740"
    INDEX 01 03:53:42
  TRACK 181 AUDIO
    TITLE "0:"
    INDEX 01 03:55:40
  TRACK 182 AUDIO
    TITLE "30:cjc023_7741"
    INDEX 01 03:55:62
  TRACK 183 AUDIO
    TITLE "0:"
    INDEX 01 03:57:71
  TRACK 184 AUDIO
    TITLE "31:cjc023_7742"
    INDEX 01 03:58:17
  TRACK 185 AUDIO
    TITLE "0:"
    INDEX 01 04:00:24
  TRACK 186 AUDIO
    TITLE "28:cjc023_7743"
    INDEX 01 04:01:21
  TRACK 187 AUDIO
    TITLE "0:"
    INDEX 01 04:02:27
  TRACK 188 AUDIO
    TITLE "29:cjc023_7744"
    INDEX 01 04:02:74
  TRACK 189 AUDIO
    TITLE "0:"
    INDEX 01 04:04:51
  TRACK 190 AUDIO
    TITLE "30:cjc023_7745"
    INDEX 01 04:05:08
  TRACK 191 AUDIO
    TITLE "0:"
    INDEX 01 04:06:56
  TRACK 192 AUDIO
    TITLE "31:cjc023_7746"
    INDEX 01 04:07:06
  TRACK 193 AUDIO
    TITLE "0:"
    INDEX 01 04:08:57
  TRACK 194 AUDIO
    TITLE "28:cjc023_7747"
    INDEX 01 04:09:56
  TRACK 195 AUDIO
    TITLE "0:"
    INDEX 01 04:11:00
  TRACK 196 AUDIO
    TITLE "29:cjc023_7748"
    INDEX 01 04:11:47
  TRACK 197 AUDIO
    TITLE "0:"
    INDEX 01 04:13:33
  TRACK 198 AUDIO
    TITLE "30:cjc023_7749"
    INDEX 01 04:13:52
  TRACK 199 AUDIO
    TITLE "0:"
    INDEX 01 04:15:18
  TRACK 200 AUDIO
    TITLE "31:cjc023_7750"
    INDEX 01 04:15:41
  TRACK 201 AUDIO
    TITLE "0:"
    INDEX 01 04:17:09
  TRACK 202 AUDIO
    TITLE "28:cjc023_7751"
    INDEX 01 04:18:08
  TRACK 203 AUDIO
    TITLE "0:"
    INDEX 01 04:19:23
  TRACK 204 AUDIO
    TITLE "29:cjc023_7752"
    INDEX 01 04:20:01
  TRACK 205 AUDIO
    TITLE "0:"
    INDEX 01 04:21:52
  TRACK 206 AUDIO
    TITLE "30:cjc023_7753"
    INDEX 01 04:22:00
  TRACK 207 AUDIO
    TITLE "0:"
    INDEX 01 04:23:74
  TRACK 208 AUDIO
    TITLE "31:cjc023_7754"
    INDEX 01 04:24:24
  TRACK 209 AUDIO
    TITLE "0:"
    INDEX 01 04:26:27
  TRACK 210 AUDIO
    TITLE "28:cjc023_7755"
    INDEX 01 04:27:25
  TRACK 211 AUDIO
    TITLE "0:"
    INDEX 01 04:28:42
  TRACK 212 AUDIO
    TITLE "29:cjc023_7756"
    INDEX 01 04:29:12
  TRACK 213 AUDIO
    TITLE "0:"
    INDEX 01 04:30:58
  TRACK 214 AUDIO
    TITLE "30:cjc023_7757"
    INDEX 01 04:31:05
  TRACK 215 AUDIO
    TITLE "0:"
    INDEX 01 04:33:27
  TRACK 216 AUDIO
    TITLE "31:cjc023_7758"
    INDEX 01 04:33:53
  TRACK 217 AUDIO
    TITLE "0:"
    INDEX 01 04:36:00
  TRACK 218 AUDIO
    TITLE "28:cjc023_7759"
    INDEX 01 04:37:02
  TRACK 219 AUDIO
    TITLE "0:"
    INDEX 01 04:38:32
  TRACK 220 AUDIO
    TITLE "29:cjc023_7760"
    INDEX 01 04:39:04
  TRACK 221 AUDIO
    TITLE "0:"
    INDEX 01 04:41:09
  TRACK 222 AUDIO
    TITLE "30:cjc023_7761"
    INDEX 01 04:41:33
  TRACK 223 AUDIO
    TITLE "0:"
    INDEX 01 04:43:38
  TRACK 224 AUDIO
    TITLE "31:cjc023_7762"
    INDEX 01 04:43:67
  TRACK 225 AUDIO
    TITLE "0:"
    INDEX 01 04:45:74
  TRACK 226 AUDIO
    TITLE "28:cjc023_7763"
    INDEX 01 04:47:02
  TRACK 227 AUDIO
    TITLE "0:"
    INDEX 01 04:48:27
  TRACK 228 AUDIO
    TITLE "29:cjc023_7764"
    INDEX 01 04:49:05
  TRACK 229 AUDIO
    TITLE "0:"
    INDEX 01 04:51:59
  TRACK 230 AUDIO
    TITLE "30:cjc023_7765"
    INDEX 01 04:52:05
  TRACK 231 AUDIO
    TITLE "0:"
    INDEX 01 04:55:09
  TRACK 232 AUDIO
    TITLE "31:cjc023_7766"
    INDEX 01 04:55:37
  TRACK 233 AUDIO
    TITLE "0:"
    INDEX 01 04:58:41
  TRACK 234 AUDIO
    TITLE "28:cjc023_7767"
    INDEX 01 04:59:39
  TRACK 235 AUDIO
    TITLE "0:"
    INDEX 01 05:00:60
  TRACK 236 AUDIO
    TITLE "29:cjc023_7768"
    INDEX 01 05:01:32
  TRACK 237 AUDIO
    TITLE "0:"
    INDEX 01 05:03:36
  TRACK 238 AUDIO
    TITLE "30:cjc023_7769"
    INDEX 01 05:03:56
  TRACK 239 AUDIO
    TITLE "0:"
    INDEX 01 05:05:33
  TRACK 240 AUDIO
    TITLE "31:cjc023_7770"
    INDEX 01 05:05:59
  TRACK 241 AUDIO
    TITLE "0:"
    INDEX 01 05:07:36
  TRACK 242 AUDIO
    TITLE "28:cjc023_7771"
    INDEX 01 05:08:43
  TRACK 243 AUDIO
    TITLE "0:"
    INDEX 01 05:09:58
  TRACK 244 AUDIO
    TITLE "29:cjc023_7772"
    INDEX 01 05:10:29
  TRACK 245 AUDIO
    TITLE "0:"
    INDEX 01 05:12:51
  TRACK 246 AUDIO
    TITLE "30:cjc023_7773"
    INDEX 01 05:12:72
  TRACK 247 AUDIO
    TITLE "0:"
    INDEX 01 05:14:54
  TRACK 248 AUDIO
    TITLE "31:cjc023_7774"
    INDEX 01 05:15:04
  TRACK 249 AUDIO
    TITLE "0:"
    INDEX 01 05:16:64
  TRACK 250 AUDIO
    TITLE "28:cjc023_7775"
    INDEX 01 05:17:62
  TRACK 251 AUDIO
    TITLE "0:"
    INDEX 01 05:19:02
  TRACK 252 AUDIO
    TITLE "29:cjc023_7776"
    INDEX 01 05:19:55
  TRACK 253 AUDIO
    TITLE "0:"
    INDEX 01 05:21:54
  TRACK 254 AUDIO
    TITLE "30:cjc023_7777"
    INDEX 01 05:22:02
  TRACK 255 AUDIO
    TITLE "0:"
    INDEX 01 05:24:48
  TRACK 256 AUDIO
    TITLE "31:cjc023_7778"
    INDEX 01 05:24:72
  TRACK 257 AUDIO
    TITLE "0:"
    INDEX 01 05:27:45
  TRACK 258 AUDIO
    TITLE "28:cjc023_7779"
    INDEX 01 05:28:42
  TRACK 259 AUDIO
    TITLE "0:"
    INDEX 01 05:29:69
  TRACK 260 AUDIO
    TITLE "29:cjc023_7780"
    INDEX 01 05:30:39
  TRACK 261 AUDIO
    TITLE "0:"
    INDEX 01 05:32:56
  TRACK 262 AUDIO
    TITLE "30:cjc023_7781"
    INDEX 01 05:33:02
  TRACK 263 AUDIO
    TITLE "0:"
    INDEX 01 05:35:30
  TRACK 264 AUDIO
    TITLE "31:cjc023_7782"
    INDEX 01 05:35:50
  TRACK 265 AUDIO
    TITLE "0:"
    INDEX 01 05:38:01
  TRACK 266 AUDIO
    TITLE "28:cjc023_7783"
    INDEX 01 05:38:72
  TRACK 267 AUDIO
    TITLE "0:"
    INDEX 01 05:40:08
  TRACK 268 AUDIO
    TITLE "29:cjc023_7784"
    INDEX 01 05:40:55
  TRACK 269 AUDIO
    TITLE "0:"
    INDEX 01 05:44:35
  TRACK 270 AUDIO
    TITLE "30:cjc023_7785"
    INDEX 01 05:44:59
  TRACK 271 AUDIO
    TITLE "0:"
    INDEX 01 05:48:17
  TRACK 272 AUDIO
    TITLE "31:cjc023_7786"
    INDEX 01 05:48:37
  TRACK 273 AUDIO
    TITLE "0:"
    INDEX 01 05:51:69
  TRACK 274 AUDIO
    TITLE "28:cjc023_7787"
    INDEX 01 05:52:64
  TRACK 275 AUDIO
    TITLE "0:"
    INDEX 01 05:54:08
  TRACK 276 AUDIO
    TITLE "29:cjc023_7788"
    INDEX 01 05:54:57
  TRACK 277 AUDIO
    TITLE "0:"
    INDEX 01 05:56:68
  TRACK 278 AUDIO
    TITLE "30:cjc023_7789"
    INDEX 01 05:57:18
  TRACK 279 AUDIO
    TITLE "0:"
    INDEX 01 05:59:15
  TRACK 280 AUDIO
    TITLE "31:cjc023_7790"
    INDEX 01 05:59:37
  TRACK 281 AUDIO
    TITLE "0:"
    INDEX 01 06:01:38
  TRACK 282 AUDIO
    TITLE "28:cjc023_7791"
    INDEX 01 06:02:31
  TRACK 283 AUDIO
    TITLE "0:"
    INDEX 01 06:03:60
  TRACK 284 AUDIO
    TITLE "29:cjc023_7792"
    INDEX 01 06:04:34
  TRACK 285 AUDIO
    TITLE "0:"
    INDEX 01 06:06:74
  TRACK 286 AUDIO
    TITLE "30:cjc023_7793"
    INDEX 01 06:07:23
  TRACK 287 AUDIO
    TITLE "0:"
    INDEX 01 06:10:21
  TRACK 288 AUDIO
    TITLE "31:cjc023_7794"
    INDEX 01 06:10:39
  TRACK 289 AUDIO
    TITLE "0:"
    INDEX 01 06:13:35
  TRACK 290 AUDIO
    TITLE "28:cjc023_7795"
    INDEX 01 06:14:32
  TRACK 291 AUDIO
    TITLE "0:"
    INDEX 01 06:15:51
  TRACK 292 AUDIO
    TITLE "29:cjc023_7796"
    INDEX 01 06:16:24
  TRACK 293 AUDIO
    TITLE "0:"
    INDEX 01 06:18:42
  TRACK 294 AUDIO
    TITLE "30:cjc023_7797"
    INDEX 01 06:18:64
  TRACK 295 AUDIO
    TITLE "0:"
    INDEX 01 06:21:09
  TRACK 296 AUDIO
    TITLE "31:cjc023_7798"
    INDEX 01 06:21:33
  TRACK 297 AUDIO
    TITLE "0:"
    INDEX 01 06:23:51
  TRACK 298 AUDIO
    TITLE "28:cjc023_7799"
    INDEX 01 06:24:48
  TRACK 299 AUDIO
    TITLE "0:"
    INDEX 01 06:25:69
  TRACK 300 AUDIO
    TITLE "29:cjc023_7800"
    INDEX 01 06:26:40
  TRACK 301 AUDIO
    TITLE "0:"
    INDEX 01 06:28:35
  TRACK 302 AUDIO
    TITLE "30:cjc023_7801"
    INDEX 01 06:28:56
  TRACK 303 AUDIO
    TITLE "0:"
    INDEX 01 06:31:33
  TRACK 304 AUDIO
    TITLE "31:cjc023_7802"
    INDEX 01 06:31:54
  TRACK 305 AUDIO
    TITLE "0:"
    INDEX 01 06:34:29
  TRACK 306 AUDIO
    TITLE "28:cjc023_7803"
    INDEX 01 06:35:27
  TRACK 307 AUDIO
    TITLE "0:"
    INDEX 01 06:36:36
  TRACK 308 AUDIO
    TITLE "29:cjc023_7804"
    INDEX 01 06:37:12
  TRACK 309 AUDIO
    TITLE "0:"
    INDEX 01 06:39:09
  TRACK 310 AUDIO
    TITLE "30:cjc023_7805"
    INDEX 01 06:39:34
  TRACK 311 AUDIO
    TITLE "0:"
    INDEX 01 06:41:18
  TRACK 312 AUDIO
    TITLE "31:cjc023_7806"
    INDEX 01 06:41:37
  TRACK 313 AUDIO
    TITLE "0:"
    INDEX 01 06:43:18
  TRACK 314 AUDIO
    TITLE "28:cjc023_7807"
    INDEX 01 06:44:14
  TRACK 315 AUDIO
    TITLE "0:"
    INDEX 01 06:45:39
  TRACK 316 AUDIO
    TITLE "29:cjc023_7808"
    INDEX 01 06:46:09
  TRACK 317 AUDIO
    TITLE "0:"
    INDEX 01 06:48:24
  TRACK 318 AUDIO
    TITLE "30:cjc023_7809"
    INDEX 01 06:48:45
  TRACK 319 AUDIO
    TITLE "0:"
    INDEX 01 06:50:26
  TRACK 320 AUDIO
    TITLE "31:cjc023_7810"
    INDEX 01 06:50:50
  TRACK 321 AUDIO
    TITLE "0:"
    INDEX 01 06:52:33
  TRACK 322 AUDIO
    TITLE "28:cjc023_7811"
    INDEX 01 06:53:29
  TRACK 323 AUDIO
    TITLE "0:"
    INDEX 01 06:54:63
  TRACK 324 AUDIO
    TITLE "29:cjc023_7812"
    INDEX 01 06:55:35
  TRACK 325 AUDIO
    TITLE "0:"
    INDEX 01 06:58:18
  TRACK 326 AUDIO
    TITLE "30:cjc023_7813"
    INDEX 01 06:58:40
  TRACK 327 AUDIO
    TITLE "0:"
    INDEX 01 07:01:18
  TRACK 328 AUDIO
    TITLE "31:cjc023_7814"
    INDEX 01 07:01:40
  TRACK 329 AUDIO
    TITLE "0:"
    INDEX 01 07:04:17
  TRACK 330 AUDIO
    TITLE "28:cjc023_7815"
    INDEX 01 07:05:14
  TRACK 331 AUDIO
    TITLE "0:"
    INDEX 01 07:06:27
  TRACK 332 AUDIO
    TITLE "29:cjc023_7816"
    INDEX 01 07:07:03
  TRACK 333 AUDIO
    TITLE "0:"
    INDEX 01 07:09:45
  TRACK 334 AUDIO
    TITLE "30:cjc023_7817"
    INDEX 01 07:09:67
  TRACK 335 AUDIO
    TITLE "0:"
    INDEX 01 07:11:72
  TRACK 336 AUDIO
    TITLE "31:cjc023_7818"
    INDEX 01 07:12:20
  TRACK 337 AUDIO
    TITLE "0:"
    INDEX 01 07:14:23
  TRACK 338 AUDIO
    TITLE "28:cjc023_7819"
    INDEX 01 07:15:22
  TRACK 339 AUDIO
    TITLE "0:"
    INDEX 01 07:16:45
  TRACK 340 AUDIO
    TITLE "29:cjc023_7820"
    INDEX 01 07:17:17
  TRACK 341 AUDIO
    TITLE "0:"
    INDEX 01 07:20:00
  TRACK 342 AUDIO
    TITLE "30:cjc023_7821"
    INDEX 01 07:20:24
  TRACK 343 AUDIO
    TITLE "0:"
    INDEX 01 07:22:26
  TRACK 344 AUDIO
    TITLE "31:cjc023_7822"
    INDEX 01 07:22:50
  TRACK 345 AUDIO
    TITLE "0:"
    INDEX 01 07:24:55
  TRACK 346 AUDIO
    TITLE "28:cjc023_7823"
    INDEX 01 07:25:52
  TRACK 347 AUDIO
    TITLE "0:"
    INDEX 01 07:26:63
  TRACK 348 AUDIO
    TITLE "29:cjc023_7824"
    INDEX 01 07:27:37
  TRACK 349 AUDIO
    TITLE "0:"
    INDEX 01 07:29:54
  TRACK 350 AUDIO
    TITLE "30:cjc023_7825"
    INDEX 01 07:30:02
  TRACK 351 AUDIO
    TITLE "0:"
    INDEX 01 07:32:15
  TRACK 352 AUDIO
    TITLE "31:cjc023_7826"
    INDEX 01 07:32:40
  TRACK 353 AUDIO
    TITLE "0:"
    INDEX 01 07:34:53
  TRACK 354 AUDIO
    TITLE "28:cjc023_7827"
    INDEX 01 07:35:52
  TRACK 355 AUDIO
    TITLE "0:"
    INDEX 01 07:37:18
  TRACK 356 AUDIO
    TITLE "29:cjc023_7828"
    INDEX 01 07:37:65
  TRACK 357 AUDIO
    TITLE "0:"
    INDEX 01 07:41:18
  TRACK 358 AUDIO
    TITLE "30:cjc023_7829"
    INDEX 01 07:41:41
  TRACK 359 AUDIO
    TITLE "0:"
    INDEX 01 07:45:02
  TRACK 360 AUDIO
    TITLE "31:cjc023_7830"
    INDEX 01 07:45:27
  TRACK 361 AUDIO
    TITLE "0:"
    INDEX 01 07:48:63
  TRACK 362 AUDIO
    TITLE "28:cjc023_7831"
    INDEX 01 07:49:62
  TRACK 363 AUDIO
    TITLE "0:"
    INDEX 01 07:51:10
  TRACK 364 AUDIO
    TITLE "29:cjc023_7832"
    INDEX 01 07:51:57
  TRACK 365 AUDIO
    TITLE "0:"
    INDEX 01 07:53:15
  TRACK 366 AUDIO
    TITLE "30:cjc023_7833"
    INDEX 01 07:53:37
  TRACK 367 AUDIO
    TITLE "0:"
    INDEX 01 07:55:34
  TRACK 368 AUDIO
    TITLE "31:cjc023_7834"
    INDEX 01 07:55:55
  TRACK 369 AUDIO
    TITLE "0:"
    INDEX 01 07:57:48
  TRACK 370 AUDIO
    TITLE "28:cjc023_7835"
    INDEX 01 07:58:46
  TRACK 371 AUDIO
    TITLE "0:"
    INDEX 01 07:59:67
  TRACK 372 AUDIO
    TITLE "29:cjc023_7836"
    INDEX 01 08:00:37
  TRACK 373 AUDIO
    TITLE "0:"
    INDEX 01 08:03:06
  TRACK 374 AUDIO
    TITLE "30:cjc023_7837"
    INDEX 01 08:03:31
  TRACK 375 AUDIO
    TITLE "0:"
    INDEX 01 08:06:59
  TRACK 376 AUDIO
    TITLE "31:cjc023_7838"
    INDEX 01 08:07:07
  TRACK 377 AUDIO
    TITLE "0:"
    INDEX 01 08:10:35
  TRACK 378 AUDIO
    TITLE "28:cjc023_7839"
    INDEX 01 08:11:35
  TRACK 379 AUDIO
    TITLE "0:"
    INDEX 01 08:12:67
  TRACK 380 AUDIO
    TITLE "29:cjc023_7840"
    INDEX 01 08:13:43
  TRACK 381 AUDIO
    TITLE "0:"
    INDEX 01 08:15:28
  TRACK 382 AUDIO
    TITLE "30:cjc023_7841"
    INDEX 01 08:15:50
  TRACK 383 AUDIO
    TITLE "0:"
    INDEX 01 08:18:15
  TRACK 384 AUDIO
    TITLE "31:cjc023_7842"
    INDEX 01 08:18:37
  TRACK 385 AUDIO
    TITLE "0:"
    INDEX 01 08:21:04
  TRACK 386 AUDIO
    TITLE "28:cjc023_7843"
    INDEX 01 08:21:74
  TRACK 387 AUDIO
    TITLE "0:"
    INDEX 01 08:23:38
  TRACK 388 AUDIO
    TITLE "29:cjc023_7844"
    INDEX 01 08:24:06
  TRACK 389 AUDIO
    TITLE "0:"
    INDEX 01 08:25:46
  TRACK 390 AUDIO
    TITLE "30:cjc023_7845"
    INDEX 01 08:25:70
  TRACK 391 AUDIO
    TITLE "0:"
    INDEX 01 08:28:21
  TRACK 392 AUDIO
    TITLE "31:cjc023_7846"
    INDEX 01 08:28:45
  TRACK 393 AUDIO
    TITLE "0:"
    INDEX 01 08:30:71
  TRACK 394 AUDIO
    TITLE "28:cjc023_7847"
    INDEX 01 08:31:69
  TRACK 395 AUDIO
    TITLE "0:"
    INDEX 01 08:33:21
  TRACK 396 AUDIO
    TITLE "29:cjc023_7848"
    INDEX 01 08:33:66
  TRACK 397 AUDIO
    TITLE "0:"
    INDEX 01 08:35:72
  TRACK 398 AUDIO
    TITLE "30:cjc023_7849"
    INDEX 01 08:36:23
  TRACK 399 AUDIO
    TITLE "0:"
    INDEX 01 08:38:14
  TRACK 400 AUDIO
    TITLE "31:cjc023_7850"
    INDEX 01 08:38:37
  TRACK 401 AUDIO
    TITLE "0:"
    INDEX 01 08:40:30
  TRACK 402 AUDIO
    TITLE "28:cjc023_7851"
    INDEX 01 08:41:26
  TRACK 403 AUDIO
    TITLE "0:"
    INDEX 01 08:42:45
  TRACK 404 AUDIO
    TITLE "29:cjc023_7852"
    INDEX 01 08:43:19
  TRACK 405 AUDIO
    TITLE "0:"
    INDEX 01 08:46:66
  TRACK 406 AUDIO
    TITLE "30:cjc023_7853"
    INDEX 01 08:47:15
  TRACK 407 AUDIO
    TITLE "0:"
    INDEX 01 08:49:70
  TRACK 408 AUDIO
    TITLE "31:cjc023_7854"
    INDEX 01 08:50:19
  TRACK 409 AUDIO
    TITLE "0:"
    INDEX 01 08:53:02
  TRACK 410 AUDIO
    TITLE "28:cjc023_7855"
    INDEX 01 08:53:74
  TRACK 411 AUDIO
    TITLE "0:"
    INDEX 01 08:55:36
  TRACK 412 AUDIO
    TITLE "29:cjc023_7856"
    INDEX 01 08:56:10
  TRACK 413 AUDIO
    TITLE "0:"
    INDEX 01 08:57:60
  TRACK 414 AUDIO
    TITLE "30:cjc023_7857"
    INDEX 01 08:58:09
  TRACK 415 AUDIO
    TITLE "0:"
    INDEX 01 09:00:23
  TRACK 416 AUDIO
    TITLE "31:cjc023_7858"
    INDEX 01 09:00:45
  TRACK 417 AUDIO
    TITLE "0:"
    INDEX 01 09:02:59
  TRACK 418 AUDIO
    TITLE "28:cjc023_7859"
    INDEX 01 09:03:55
  TRACK 419 AUDIO
    TITLE "0:"
    INDEX 01 09:04:72
  TRACK 420 AUDIO
    TITLE "29:cjc023_7860"
    INDEX 01 09:05:42
  TRACK 421 AUDIO
    TITLE "0:"
    INDEX 01 09:08:25
  TRACK 422 AUDIO
    TITLE "30:cjc023_7861"
    INDEX 01 09:08:46
  TRACK 423 AUDIO
    TITLE "0:"
    INDEX 01 09:11:00
  TRACK 424 AUDIO
    TITLE "31:cjc023_7862"
    INDEX 01 09:11:19
  TRACK 425 AUDIO
    TITLE "0:"
    INDEX 01 09:13:45
  TRACK 426 AUDIO
    TITLE "28:cjc023_7863"
    INDEX 01 09:14:41
  TRACK 427 AUDIO
    TITLE "0:"
    INDEX 01 09:15:60
  TRACK 428 AUDIO
    TITLE "29:cjc023_7864"
    INDEX 01 09:16:34
  TRACK 429 AUDIO
    TITLE "0:"
    INDEX 01 09:19:19
  TRACK 430 AUDIO
    TITLE "30:cjc023_7865"
    INDEX 01 09:19:40
  TRACK 431 AUDIO
    TITLE "0:"
    INDEX 01 09:22:21
  TRACK 432 AUDIO
    TITLE "31:cjc023_7866"
    INDEX 01 09:22:46
  TRACK 433 AUDIO
    TITLE "0:"
    INDEX 01 09:25:29
  TRACK 434 AUDIO
    TITLE "28:cjc023_7867"
    INDEX 01 09:26:29
  TRACK 435 AUDIO
    TITLE "0:"
    INDEX 01 09:27:42
  TRACK 436 AUDIO
    TITLE "29:cjc023_7868"
    INDEX 01 09:28:16
  TRACK 437 AUDIO
    TITLE "0:"
    INDEX 01 09:31:12
  TRACK 438 AUDIO
    TITLE "30:cjc023_7869"
    INDEX 01 09:31:34
  TRACK 439 AUDIO
    TITLE "0:"
    INDEX 01 09:33:42
  TRACK 440 AUDIO
    TITLE "31:cjc023_7870"
    INDEX 01 09:33:68
  TRACK 441 AUDIO
    TITLE "0:"
    INDEX 01 09:36:00
  TRACK 442 AUDIO
    TITLE "28:cjc023_7871"
    INDEX 01 09:36:74
  TRACK 443 AUDIO
    TITLE "0:"
    INDEX 01 09:38:36
  TRACK 444 AUDIO
    TITLE "29:cjc023_7872"
    INDEX 01 09:39:08
  TRACK 445 AUDIO
    TITLE "0:"
    INDEX 01 09:43:15
  TRACK 446 AUDIO
    TITLE "30:cjc023_7873"
    INDEX 01 09:43:37
  TRACK 447 AUDIO
    TITLE "0:"
    INDEX 01 09:46:25
  TRACK 448 AUDIO
    TITLE "31:cjc023_7874"
    INDEX 01 09:46:47
  TRACK 449 AUDIO
    TITLE "0:"
    INDEX 01 09:49:35
  TRACK 450 AUDIO
    TITLE "28:cjc023_7875"
    INDEX 01 09:50:29
  TRACK 451 AUDIO
    TITLE "0:"
    INDEX 01 09:51:48
  TRACK 452 AUDIO
    TITLE "29:cjc023_7876"
    INDEX 01 09:52:20
  TRACK 453 AUDIO
    TITLE "0:"
    INDEX 01 09:54:35
  TRACK 454 AUDIO
    TITLE "30:cjc023_7877"
    INDEX 01 09:54:64
  TRACK 455 AUDIO
    TITLE "0:"
    INDEX 01 09:57:13
  TRACK 456 AUDIO
    TITLE "31:cjc023_7878"
    INDEX 01 09:57:35
  TRACK 457 AUDIO
    TITLE "0:"
    INDEX 01 09:59:59
  TRACK 458 AUDIO
    TITLE "28:cjc023_7879"
    INDEX 01 10:00:55
  TRACK 459 AUDIO
    TITLE "0:"
    INDEX 01 10:01:52
  TRACK 460 AUDIO
    TITLE "29:cjc023_7880"
    INDEX 01 10:02:24
  TRACK 461 AUDIO
    TITLE "0:"
    INDEX 01 10:05:36
  TRACK 462 AUDIO
    TITLE "30:cjc023_7881"
    INDEX 01 10:05:56
  TRACK 463 AUDIO
    TITLE "0:"
    INDEX 01 10:07:69
  TRACK 464 AUDIO
    TITLE "31:cjc023_7882"
    INDEX 01 10:08:15
  TRACK 465 AUDIO
    TITLE "0:"
    INDEX 01 10:10:26
  TRACK 466 AUDIO
    TITLE "28:cjc023_7883"
    INDEX 01 10:11:21
  TRACK 467 AUDIO
    TITLE "0:"
    INDEX 01 10:12:46
  TRACK 468 AUDIO
    TITLE "29:cjc023_7884"
    INDEX 01 10:13:22
  TRACK 469 AUDIO
    TITLE "0:"
    INDEX 01 10:14:57
  TRACK 470 AUDIO
    TITLE "30:cjc023_7885"
    INDEX 01 10:15:07
  TRACK 471 AUDIO
    TITLE "0:"
    INDEX 01 10:16:72
  TRACK 472 AUDIO
    TITLE "31:cjc023_7886"
    INDEX 01 10:17:20
  TRACK 473 AUDIO
    TITLE "0:"
    INDEX 01 10:19:09
  TRACK 474 AUDIO
    TITLE "28:cjc023_7887"
    INDEX 01 10:20:07
  TRACK 475 AUDIO
    TITLE "0:"
    INDEX 01 10:21:26
  TRACK 476 AUDIO
    TITLE "29:cjc023_7888"
    INDEX 01 10:21:73
  TRACK 477 AUDIO
    TITLE "0:"
    INDEX 01 10:24:32
  TRACK 478 AUDIO
    TITLE "30:cjc023_7889"
    INDEX 01 10:24:53
  TRACK 479 AUDIO
    TITLE "0:"
    INDEX 01 10:27:07
  TRACK 480 AUDIO
    TITLE "31:cjc023_7890"
    INDEX 01 10:27:26
  TRACK 481 AUDIO
    TITLE "0:"
    INDEX 01 10:29:53
  TRACK 482 AUDIO
    TITLE "28:cjc023_7891"
    INDEX 01 10:30:50
  TRACK 483 AUDIO
    TITLE "0:"
    INDEX 01 10:32:00
  TRACK 484 AUDIO
    TITLE "29:cjc023_7892"
    INDEX 01 10:32:47
  TRACK 485 AUDIO
    TITLE "0:"
    INDEX 01 10:34:36
  TRACK 486 AUDIO
    TITLE "30:cjc023_7893"
    INDEX 01 10:34:60
  TRACK 487 AUDIO
    TITLE "0:"
    INDEX 01 10:36:72
  TRACK 488 AUDIO
    TITLE "31:cjc023_7894"
    INDEX 01 10:37:25
  TRACK 489 AUDIO
    TITLE "0:"
    INDEX 01 10:39:39
  TRACK 490 AUDIO
    TITLE "28:cjc023_7895"
    INDEX 01 10:40:41
  TRACK 491 AUDIO
    TITLE "0:"
    INDEX 01 10:41:44
  TRACK 492 AUDIO
    TITLE "29:cjc023_7896"
    INDEX 01 10:42:20
  TRACK 493 AUDIO
    TITLE "0:"
    INDEX 01 10:43:64
  TRACK 494 AUDIO
    TITLE "30:cjc023_7897"
    INDEX 01 10:44:11
  TRACK 495 AUDIO
    TITLE "0:"
    INDEX 01 10:45:59
  TRACK 496 AUDIO
    TITLE "31:cjc023_7898"
    INDEX 01 10:46:06
  TRACK 497 AUDIO
    TITLE "0:"
    INDEX 01 10:47:54
  TRACK 498 AUDIO
    TITLE "28:cjc023_7899"
    INDEX 01 10:48:52
  TRACK 499 AUDIO
    TITLE "0:"
    INDEX 01 10:49:57
  TRACK 500 AUDIO
    TITLE "29:cjc023_7900"
    INDEX 01 10:50:33
  TRACK 501 AUDIO
    TITLE "0:"
    INDEX 01 10:52:36
  TRACK 502 AUDIO
    TITLE "30:cjc023_7901"
    INDEX 01 10:52:59
  TRACK 503 AUDIO
    TITLE "0:"
    INDEX 01 10:54:49
  TRACK 504 AUDIO
    TITLE "31:cjc023_7902"
    INDEX 01 10:54:72
  TRACK 505 AUDIO
    TITLE "0:"
    INDEX 01 10:56:57
  TRACK 506 AUDIO
    TITLE "28:cjc023_7903"
    INDEX 01 10:57:61
  TRACK 507 AUDIO
    TITLE "0:"
    INDEX 01 10:59:03
  TRACK 508 AUDIO
    TITLE "29:cjc023_7904"
    INDEX 01 10:59:50
  TRACK 509 AUDIO
    TITLE "0:"
    INDEX 01 11:01:58
  TRACK 510 AUDIO
    TITLE "30:cjc023_7905"
    INDEX 01 11:02:05
  TRACK 511 AUDIO
    TITLE "0:"
    INDEX 01 11:04:51
  TRACK 512 AUDIO
    TITLE "31:cjc023_7906"
    INDEX 01 11:04:69
  TRACK 513 AUDIO
    TITLE "0:"
    INDEX 01 11:07:39
  TRACK 514 AUDIO
    TITLE "28:cjc023_7907"
    INDEX 01 11:08:35
  TRACK 515 AUDIO
    TITLE "0:"
    INDEX 01 11:09:56
  TRACK 516 AUDIO
    TITLE "29:cjc023_7908"
    INDEX 01 11:10:30
  TRACK 517 AUDIO
    TITLE "0:"
    INDEX 01 11:12:21
  TRACK 518 AUDIO
    TITLE "30:cjc023_7909"
    INDEX 01 11:12:47
  TRACK 519 AUDIO
    TITLE "0:"
    INDEX 01 11:14:42
  TRACK 520 AUDIO
    TITLE "31:cjc023_7910"
    INDEX 01 11:14:65
  TRACK 521 AUDIO
    TITLE "0:"
    INDEX 01 11:16:60
  TRACK 522 AUDIO
    TITLE "28:cjc023_7911"
    INDEX 01 11:17:57
  TRACK 523 AUDIO
    TITLE "0:"
    INDEX 01 11:19:09
  TRACK 524 AUDIO
    TITLE "29:cjc023_7912"
    INDEX 01 11:19:56
  TRACK 525 AUDIO
    TITLE "0:"
    INDEX 01 11:21:71
  TRACK 526 AUDIO
    TITLE "30:cjc023_7913"
    INDEX 01 11:22:19
  TRACK 527 AUDIO
    TITLE "0:"
    INDEX 01 11:24:56
  TRACK 528 AUDIO
    TITLE "31:cjc023_7914"
    INDEX 01 11:25:12
  TRACK 529 AUDIO
    TITLE "0:"
    INDEX 01 11:27:48
  TRACK 530 AUDIO
    TITLE "28:cjc023_7915"
    INDEX 01 11:28:53
  TRACK 531 AUDIO
    TITLE "0:"
    INDEX 01 11:30:11
  TRACK 532 AUDIO
    TITLE "29:cjc023_7916"
    INDEX 01 11:30:60
  TRACK 533 AUDIO
    TITLE "0:"
    INDEX 01 11:33:33
  TRACK 534 AUDIO
    TITLE "30:cjc023_7917"
    INDEX 01 11:33:55
  TRACK 535 AUDIO
    TITLE "0:"
    INDEX 01 11:36:22
  TRACK 536 AUDIO
    TITLE "31:cjc023_7918"
    INDEX 01 11:36:45
  TRACK 537 AUDIO
    TITLE "0:"
    INDEX 01 11:39:12
  TRACK 538 AUDIO
    TITLE "28:cjc023_7919"
    INDEX 01 11:40:10
  TRACK 539 AUDIO
    TITLE "0:"
    INDEX 01 11:41:21
  TRACK 540 AUDIO
    TITLE "29:cjc023_7920"
    INDEX 01 11:41:68
  TRACK 541 AUDIO
    TITLE "0:"
    INDEX 01 11:44:27
  TRACK 542 AUDIO
    TITLE "30:cjc023_7921"
    INDEX 01 11:44:50
  TRACK 543 AUDIO
    TITLE "0:"
    INDEX 01 11:46:57
  TRACK 544 AUDIO
    TITLE "31:cjc023_7922"
    INDEX 01 11:47:08
  TRACK 545 AUDIO
    TITLE "0:"
    INDEX 01 11:49:14
  TRACK 546 AUDIO
    TITLE "28:cjc023_7923"
    INDEX 01 11:50:14
  TRACK 547 AUDIO
    TITLE "0:"
    INDEX 01 11:51:29
  TRACK 548 AUDIO
    TITLE "29:cjc023_7924"
    INDEX 01 11:52:03
  TRACK 549 AUDIO
    TITLE "0:"
    INDEX 01 11:54:33
  TRACK 550 AUDIO
    TITLE "30:cjc023_7925"
    INDEX 01 11:54:55
  TRACK 551 AUDIO
    TITLE "0:"
    INDEX 01 11:57:24
  TRACK 552 AUDIO
    TITLE "31:cjc023_7926"
    INDEX 01 11:57:45
  TRACK 553 AUDIO
    TITLE "0:"
    INDEX 01 12:00:12
  TRACK 554 AUDIO
    TITLE "28:cjc023_7927"
    INDEX 01 12:01:12
  TRACK 555 AUDIO
    TITLE "0:"
    INDEX 01 12:02:23
  TRACK 556 AUDIO
    TITLE "29:cjc023_7928"
    INDEX 01 12:02:70
  TRACK 557 AUDIO
    TITLE "0:"
    INDEX 01 12:05:43
  TRACK 558 AUDIO
    TITLE "30:cjc023_7929"
    INDEX 01 12:05:64
  TRACK 559 AUDIO
    TITLE "0:"
    INDEX 01 12:08:02
  TRACK 560 AUDIO
    TITLE "31:cjc023_7930"
    INDEX 01 12:08:29
  TRACK 561 AUDIO
    TITLE "0:"
    INDEX 01 12:10:46
  TRACK 562 AUDIO
    TITLE "28:cjc023_7931"
    INDEX 01 12:11:45
  TRACK 563 AUDIO
    TITLE "0:"
    INDEX 01 12:12:68
  TRACK 564 AUDIO
    TITLE "29:cjc023_7932"
    INDEX 01 12:13:38
  TRACK 565 AUDIO
    TITLE "0:"
    INDEX 01 12:16:11
  TRACK 566 AUDIO
    TITLE "30:cjc023_7933"
    INDEX 01 12:16:35
  TRACK 567 AUDIO
    TITLE "0:"
    INDEX 01 12:19:00
  TRACK 568 AUDIO
    TITLE "31:cjc023_7934"
    INDEX 01 12:19:19
  TRACK 569 AUDIO
    TITLE "0:"
    INDEX 01 12:21:59
  TRACK 570 AUDIO
    TITLE "28:cjc023_7935"
    INDEX 01 12:22:53
  TRACK 571 AUDIO
    TITLE "0:"
    INDEX 01 12:23:68
  TRACK 572 AUDIO
    TITLE "29:cjc023_7936"
    INDEX 01 12:24:42
  TRACK 573 AUDIO
    TITLE "0:"
    INDEX 01 12:26:33
  TRACK 574 AUDIO
    TITLE "30:cjc023_7937"
    INDEX 01 12:26:59
  TRACK 575 AUDIO
    TITLE "0:"
    INDEX 01 12:28:36
  TRACK 576 AUDIO
    TITLE "31:cjc023_7938"
    INDEX 01 12:28:61
  TRACK 577 AUDIO
    TITLE "0:"
    INDEX 01 12:30:41
  TRACK 578 AUDIO
    TITLE "28:cjc023_7939"
    INDEX 01 12:31:36
  TRACK 579 AUDIO
    TITLE "0:"
    INDEX 01 12:32:46
  TRACK 580 AUDIO
    TITLE "29:cjc023_7940"
    INDEX 01 12:33:18
  TRACK 581 AUDIO
    TITLE "0:"
    INDEX 01 12:35:73
  TRACK 582 AUDIO
    TITLE "30:cjc023_7941"
    INDEX 01 12:36:20
  TRACK 583 AUDIO
    TITLE "0:"
    INDEX 01 12:38:32
  TRACK 584 AUDIO
    TITLE "31:cjc023_7942"
    INDEX 01 12:38:54
  TRACK 585 AUDIO
    TITLE "0:"
    INDEX 01 12:40:69
  TRACK 586 AUDIO
    TITLE "28:cjc023_7943"
    INDEX 01 12:41:64
  TRACK 587 AUDIO
    TITLE "0:"
    INDEX 01 12:43:00
  TRACK 588 AUDIO
    TITLE "29:cjc023_7944"
    INDEX 01 12:43:45
  TRACK 589 AUDIO
    TITLE "0:"
    INDEX 01 12:48:52
  TRACK 590 AUDIO
    TITLE "30:cjc023_7945"
    INDEX 01 12:48:74
  TRACK 591 AUDIO
    TITLE "0:"
    INDEX 01 12:51:55
  TRACK 592 AUDIO
    TITLE "31:cjc023_7946"
    INDEX 01 12:51:74
  TRACK 593 AUDIO
    TITLE "0:"
    INDEX 01 12:54:51
  TRACK 594 AUDIO
    TITLE "28:cjc023_7947"
    INDEX 01 12:55:49
  TRACK 595 AUDIO
    TITLE "0:"
    INDEX 01 12:56:68
  TRACK 596 AUDIO
    TITLE "29:cjc023_7948"
    INDEX 01 12:57:38
  TRACK 597 AUDIO
    TITLE "0:"
    INDEX 01 13:00:14
  TRACK 598 AUDIO
    TITLE "30:cjc023_7949"
    INDEX 01 13:00:36
  TRACK 599 AUDIO
    TITLE "0:"
    INDEX 01 13:03:38
  TRACK 600 AUDIO
    TITLE "31:cjc023_7950"
    INDEX 01 13:03:60
  TRACK 601 AUDIO
    TITLE "0:"
    INDEX 01 13:06:60
  TRACK 602 AUDIO
    TITLE "28:cjc023_7951"
    INDEX 01 13:07:58
  TRACK 603 AUDIO
    TITLE "0:"
    INDEX 01 13:09:09
  TRACK 604 AUDIO
    TITLE "29:cjc023_7952"
    INDEX 01 13:09:57
  TRACK 605 AUDIO
    TITLE "0:"
    INDEX 01 13:12:63
  TRACK 606 AUDIO
    TITLE "30:cjc023_7953"
    INDEX 01 13:13:13
  TRACK 607 AUDIO
    TITLE "0:"
    INDEX 01 13:16:23
  TRACK 608 AUDIO
    TITLE "31:cjc023_7954"
    INDEX 01 13:16:49
  TRACK 609 AUDIO
    TITLE "0:"
    INDEX 01 13:19:57
  TRACK 610 AUDIO
    TITLE "28:cjc023_7955"
    INDEX 01 13:20:54
  TRACK 611 AUDIO
    TITLE "0:"
    INDEX 01 13:21:62
  TRACK 612 AUDIO
    TITLE "29:cjc023_7956"
    INDEX 01 13:22:34
  TRACK 613 AUDIO
    TITLE "0:"
    INDEX 01 13:24:48
  TRACK 614 AUDIO
    TITLE "30:cjc023_7957"
    INDEX 01 13:24:72
  TRACK 615 AUDIO
    TITLE "0:"
    INDEX 01 13:26:69
  TRACK 616 AUDIO
    TITLE "31:cjc023_7958"
    INDEX 01 13:27:15
  TRACK 617 AUDIO
    TITLE "0:"
    INDEX 01 13:29:12
  TRACK 618 AUDIO
    TITLE "28:cjc023_7959"
    INDEX 01 13:30:08
  TRACK 619 AUDIO
    TITLE "0:"
    INDEX 01 13:31:17
  TRACK 620 AUDIO
    TITLE "29:cjc023_7960"
    INDEX 01 13:31:66
  TRACK 621 AUDIO
    TITLE "0:"
    INDEX 01 13:34:60
  TRACK 622 AUDIO
    TITLE "30:cjc023_7961"
    INDEX 01 13:35:09
  TRACK 623 AUDIO
    TITLE "0:"
    INDEX 01 13:37:23
  TRACK 624 AUDIO
    TITLE "31:cjc023_7962"
    INDEX 01 13:37:45
  TRACK 625 AUDIO
    TITLE "0:"
    INDEX 01 13:39:60
  TRACK 626 AUDIO
    TITLE "28:cjc023_7963"
    INDEX 01 13:40:55
  TRACK 627 AUDIO
    TITLE "0:"
    INDEX 01 13:42:11
  TRACK 628 AUDIO
    TITLE "29:cjc023_7964"
    INDEX 01 13:42:60
  TRACK 629 AUDIO
    TITLE "0:"
    INDEX 01 13:44:57
  TRACK 630 AUDIO
    TITLE "30:cjc023_7965"
    INDEX 01 13:45:05
  TRACK 631 AUDIO
    TITLE "0:"
    INDEX 01 13:47:34
  TRACK 632 AUDIO
    TITLE "31:cjc023_7966"
    INDEX 01 13:47:61
  TRACK 633 AUDIO
    TITLE "0:"
    INDEX 01 13:50:16
  TRACK 634 AUDIO
    TITLE "28:cjc023_7967"
    INDEX 01 13:51:20
  TRACK 635 AUDIO
    TITLE "0:"
    INDEX 01 13:52:31
  TRACK 636 AUDIO
    TITLE "29:cjc023_7968"
    INDEX 01 13:53:01
  TRACK 637 AUDIO
    TITLE "0:"
    INDEX 01 13:54:57
  TRACK 638 AUDIO
    TITLE "30:cjc023_7969"
    INDEX 01 13:55:08
  TRACK 639 AUDIO
    TITLE "0:"
    INDEX 01 13:57:10
  TRACK 640 AUDIO
    TITLE "31:cjc023_7970"
    INDEX 01 13:57:34
  TRACK 641 AUDIO
    TITLE "0:"
    INDEX 01 13:59:37
  TRACK 642 AUDIO
    TITLE "28:cjc023_7971"
    INDEX 01 14:00:32
  TRACK 643 AUDIO
    TITLE "0:"
    INDEX 01 14:01:53
  TRACK 644 AUDIO
    TITLE "29:cjc023_7972"
    INDEX 01 14:02:35
  TRACK 645 AUDIO
    TITLE "0:"
    INDEX 01 14:05:14
  TRACK 646 AUDIO
    TITLE "30:cjc023_7973"
    INDEX 01 14:05:37
  TRACK 647 AUDIO
    TITLE "0:"
    INDEX 01 14:08:00
  TRACK 648 AUDIO
    TITLE "31:cjc023_7974"
    INDEX 01 14:08:34
  TRACK 649 AUDIO
    TITLE "0:"
    INDEX 01 14:10:74
  TRACK 650 AUDIO
    TITLE "28:cjc023_7975"
    INDEX 01 14:12:08
  TRACK 651 AUDIO
    TITLE "0:"
    INDEX 01 14:13:29
  TRACK 652 AUDIO
    TITLE "29:cjc023_7976"
    INDEX 01 14:14:03
  TRACK 653 AUDIO
    TITLE "0:"
    INDEX 01 14:16:53
  TRACK 654 AUDIO
    TITLE "30:cjc023_7977"
    INDEX 01 14:16:74
  TRACK 655 AUDIO
    TITLE "0:"
    INDEX 01 14:19:36
  TRACK 656 AUDIO
    TITLE "31:cjc023_7978"
    INDEX 01 14:19:57
  TRACK 657 AUDIO
    TITLE "0:"
    INDEX 01 14:22:18
  TRACK 658 AUDIO
    TITLE "28:cjc023_7979"
    INDEX 01 14:23:14
  TRACK 659 AUDIO
    TITLE "0:"
    INDEX 01 14:24:39
  TRACK 660 AUDIO
    TITLE "29:cjc023_7980"
    INDEX 01 14:25:13
  TRACK 661 AUDIO
    TITLE "0:"
    INDEX 01 14:28:62
  TRACK 662 AUDIO
    TITLE "30:cjc023_7981"
    INDEX 01 14:29:09
  TRACK 663 AUDIO
    TITLE "0:"
    INDEX 01 14:32:68
  TRACK 664 AUDIO
    TITLE "31:cjc023_7982"
    INDEX 01 14:33:14
  TRACK 665 AUDIO
    TITLE "0:"
    INDEX 01 14:36:71
  TRACK 666 AUDIO
    TITLE "28:cjc023_7983"
    INDEX 01 14:37:69
  TRACK 667 AUDIO
    TITLE "0:"
    INDEX 01 14:39:28
  TRACK 668 AUDIO
    TITLE "29:cjc023_7984"
    INDEX 01 14:40:02
  TRACK 669 AUDIO
    TITLE "0:"
    INDEX 01 14:43:36
  TRACK 670 AUDIO
    TITLE "30:cjc023_7985"
    INDEX 01 14:43:54
  TRACK 671 AUDIO
    TITLE "0:"
    INDEX 01 14:46:64
  TRACK 672 AUDIO
    TITLE "31:cjc023_7986"
    INDEX 01 14:47:08
  TRACK 673 AUDIO
    TITLE "0:"
    INDEX 01 14:50:18
  TRACK 674 AUDIO
    TITLE "28:cjc023_7987"
    INDEX 01 14:51:18
  TRACK 675 AUDIO
    TITLE "0:"
    INDEX 01 14:52:49
  TRACK 676 AUDIO
    TITLE "29:cjc023_7988"
    INDEX 01 14:53:19
  TRACK 677 AUDIO
    TITLE "0:"
    INDEX 01 14:55:31
  TRACK 678 AUDIO
    TITLE "30:cjc023_7989"
    INDEX 01 14:55:53
  TRACK 679 AUDIO
    TITLE "0:"
    INDEX 01 14:57:50
  TRACK 680 AUDIO
    TITLE "31:cjc023_7990"
    INDEX 01 14:57:71
  TRACK 681 AUDIO
    TITLE "0:"
    INDEX 01 14:59:70
  TRACK 682 AUDIO
    TITLE "28:cjc023_7991"
    INDEX 01 15:00:68
  TRACK 683 AUDIO
    TITLE "0:"
    INDEX 01 15:02:20
  TRACK 684 AUDIO
    TITLE "29:cjc023_7992"
    INDEX 01 15:02:65
  TRACK 685 AUDIO
    TITLE "0:"
    INDEX 01 15:04:64
  TRACK 686 AUDIO
    TITLE "30:cjc023_7993"
    INDEX 01 15:05:14
  TRACK 687 AUDIO
    TITLE "0:"
    INDEX 01 15:07:23
  TRACK 688 AUDIO
    TITLE "31:cjc023_7994"
    INDEX 01 15:07:46
  TRACK 689 AUDIO
    TITLE "0:"
    INDEX 01 15:09:53
  TRACK 690 AUDIO
    TITLE "28:cjc023_7995"
    INDEX 01 15:10:53
  TRACK 691 AUDIO
    TITLE "0:"
    INDEX 01 15:11:72
  TRACK 692 AUDIO
    TITLE "29:cjc023_7996"
    INDEX 01 15:12:38
  TRACK 693 AUDIO
    TITLE "0:"
    INDEX 01 15:15:60
  TRACK 694 AUDIO
    TITLE "30:cjc023_7997"
    INDEX 01 15:16:06
  TRACK 695 AUDIO
    TITLE "0:"
    INDEX 01 15:18:54
  TRACK 696 AUDIO
    TITLE "31:cjc023_7998"
    INDEX 01 15:18:74
  TRACK 697 AUDIO
    TITLE "0:"
    INDEX 01 15:21:46
  TRACK 698 AUDIO
    TITLE "28:cjc023_7999"
    INDEX 01 15:22:42
  TRACK 699 AUDIO
    TITLE "0:"
    INDEX 01 15:24:08
  TRACK 700 AUDIO
    TITLE "29:cjc023_8000"
    INDEX 01 15:24:55
  TRACK 701 AUDIO
    TITLE "0:"
    INDEX 01 15:28:03
  TRACK 702 AUDIO
    TITLE "30:cjc023_8001"
    INDEX 01 15:28:27
  TRACK 703 AUDIO
    TITLE "0:"
    INDEX 01 15:32:38
  TRACK 704 AUDIO
    TITLE "31:cjc023_8002"
    INDEX 01 15:32:60
  TRACK 705 AUDIO
    TITLE "0:"
    INDEX 01 15:36:72
  TRACK 706 AUDIO
    TITLE "28:cjc023_8003"
    INDEX 01 15:37:65
  TRACK 707 AUDIO
    TITLE "0:"
    INDEX 01 15:39:03
  TRACK 708 AUDIO
    TITLE "29:cjc023_8004"
    INDEX 01 15:39:52
  TRACK 709 AUDIO
    TITLE "0:"
    INDEX 01 15:41:51
  TRACK 710 AUDIO
    TITLE "30:cjc023_8005"
    INDEX 01 15:42:00
  TRACK 711 AUDIO
    TITLE "0:"
    INDEX 01 15:43:62
  TRACK 712 AUDIO
    TITLE "31:cjc023_8006"
    INDEX 01 15:44:06
  TRACK 713 AUDIO
    TITLE "0:"
    INDEX 01 15:45:69
  TRACK 714 AUDIO
    TITLE "28:cjc023_8007"
    INDEX 01 15:46:62
  TRACK 715 AUDIO
    TITLE "0:"
    INDEX 01 15:48:06
  TRACK 716 AUDIO
    TITLE "29:cjc023_8008"
    INDEX 01 15:48:55
  TRACK 717 AUDIO
    TITLE "0:"
    INDEX 01 15:50:42
  TRACK 718 AUDIO
    TITLE "30:cjc023_8009"
    INDEX 01 15:50:68
  TRACK 719 AUDIO
    TITLE "0:"
    INDEX 01 15:53:21
  TRACK 720 AUDIO
    TITLE "31:cjc023_8010"
    INDEX 01 15:53:45
  TRACK 721 AUDIO
    TITLE "0:"
    INDEX 01 15:56:00
  TRACK 722 AUDIO
    TITLE "28:cjc023_8011"
    INDEX 01 15:56:68
  TRACK 723 AUDIO
    TITLE "0:"
    INDEX 01 15:57:74
  TRACK 724 AUDIO
    TITLE "29:cjc023_8012"
    INDEX 01 15:58:50
  TRACK 725 AUDIO
    TITLE "0:"
    INDEX 01 16:00:54
  TRACK 726 AUDIO
    TITLE "30:cjc023_8013"
    INDEX 01 16:01:01
  TRACK 727 AUDIO
    TITLE "0:"
    INDEX 01 16:02:57
  TRACK 728 AUDIO
    TITLE "31:cjc023_8014"
    INDEX 01 16:03:06
  TRACK 729 AUDIO
    TITLE "0:"
    INDEX 01 16:04:64
  TRACK 730 AUDIO
    TITLE "28:cjc023_8015"
    INDEX 01 16:05:59
  TRACK 731 AUDIO
    TITLE "0:"
    INDEX 01 16:06:73
  TRACK 732 AUDIO
    TITLE "29:cjc023_8016"
    INDEX 01 16:07:43
  TRACK 733 AUDIO
    TITLE "0:"
    INDEX 01 16:10:02
  TRACK 734 AUDIO
    TITLE "30:cjc023_8017"
    INDEX 01 16:10:23
  TRACK 735 AUDIO
    TITLE "0:"
    INDEX 01 16:12:67
  TRACK 736 AUDIO
    TITLE "31:cjc023_8018"
    INDEX 01 16:13:14
  TRACK 737 AUDIO
    TITLE "0:"
    INDEX 01 16:15:56
  TRACK 738 AUDIO
    TITLE "28:cjc023_8019"
    INDEX 01 16:16:55
  TRACK 739 AUDIO
    TITLE "0:"
    INDEX 01 16:17:70
  TRACK 740 AUDIO
    TITLE "29:cjc023_8020"
    INDEX 01 16:18:41
  TRACK 741 AUDIO
    TITLE "0:"
    INDEX 01 16:20:61
  TRACK 742 AUDIO
    TITLE "30:cjc023_8021"
    INDEX 01 16:21:13
  TRACK 743 AUDIO
    TITLE "0:"
    INDEX 01 16:23:01
  TRACK 744 AUDIO
    TITLE "31:cjc023_8022"
    INDEX 01 16:23:26
  TRACK 745 AUDIO
    TITLE "0:"
    INDEX 01 16:25:11
  TRACK 746 AUDIO
    TITLE "28:cjc023_8023"
    INDEX 01 16:26:09
  TRACK 747 AUDIO
    TITLE "0:"
    INDEX 01 16:27:12
  TRACK 748 AUDIO
    TITLE "29:cjc023_8024"
    INDEX 01 16:27:67
  TRACK 749 AUDIO
    TITLE "0:"
    INDEX 01 16:29:62
  TRACK 750 AUDIO
    TITLE "30:cjc023_8025"
    INDEX 01 16:30:08
  TRACK 751 AUDIO
    TITLE "0:"
    INDEX 01 16:31:63
  TRACK 752 AUDIO
    TITLE "31:cjc023_8026"
    INDEX 01 16:32:09
  TRACK 753 AUDIO
    TITLE "0:"
    INDEX 01 16:33:64
  TRACK 754 AUDIO
    TITLE "28:cjc023_8027"
    INDEX 01 16:34:59
  TRACK 755 AUDIO
    TITLE "0:"
    INDEX 01 16:35:66
  TRACK 756 AUDIO
    TITLE "29:cjc023_8028"
    INDEX 01 16:36:40
  TRACK 757 AUDIO
    TITLE "0:"
    INDEX 01 16:39:37
  TRACK 758 AUDIO
    TITLE "30:cjc023_8029"
    INDEX 01 16:39:60
  TRACK 759 AUDIO
    TITLE "0:"
    INDEX 01 16:42:14
  TRACK 760 AUDIO
    TITLE "31:cjc023_8030"
    INDEX 01 16:42:35
  TRACK 761 AUDIO
    TITLE "0:"
    INDEX 01 16:44:63
  TRACK 762 AUDIO
    TITLE "28:cjc023_8031"
    INDEX 01 16:45:59
  TRACK 763 AUDIO
    TITLE "0:"
    INDEX 01 16:46:60
  TRACK 764 AUDIO
    TITLE "29:cjc023_8032"
    INDEX 01 16:47:38
  TRACK 765 AUDIO
    TITLE "0:"
    INDEX 01 16:49:74
  TRACK 766 AUDIO
    TITLE "30:cjc023_8033"
    INDEX 01 16:50:19
  TRACK 767 AUDIO
    TITLE "0:"
    INDEX 01 16:52:28
  TRACK 768 AUDIO
    TITLE "31:cjc023_8034"
    INDEX 01 16:52:47
  TRACK 769 AUDIO
    TITLE "0:"
    INDEX 01 16:54:54
  TRACK 770 AUDIO
    TITLE "28:cjc023_8035"
    INDEX 01 16:55:50
  TRACK 771 AUDIO
    TITLE "0:"
    INDEX 01 16:56:53
  TRACK 772 AUDIO
    TITLE "29:cjc023_8036"
    INDEX 01 16:57:25
  TRACK 773 AUDIO
    TITLE "0:"
    INDEX 01 16:59:73
  TRACK 774 AUDIO
    TITLE "30:cjc023_8037"
    INDEX 01 17:00:21
  TRACK 775 AUDIO
    TITLE "0:"
    INDEX 01 17:02:26
  TRACK 776 AUDIO
    TITLE "31:cjc023_8038"
    INDEX 01 17:02:48
  TRACK 777 AUDIO
    TITLE "0:"
    INDEX 01 17:04:50
  TRACK 778 AUDIO
    TITLE "28:cjc023_8039"
    INDEX 01 17:05:48
  TRACK 779 AUDIO
    TITLE "0:"
    INDEX 01 17:07:00
  TRACK 780 AUDIO
    TITLE "29:cjc023_8040"
    INDEX 01 17:07:45
  TRACK 781 AUDIO
    TITLE "0:"
    INDEX 01 17:09:34
  TRACK 782 AUDIO
    TITLE "30:cjc023_8041"
    INDEX 01 17:09:54
  TRACK 783 AUDIO
    TITLE "0:"
    INDEX 01 17:11:39
  TRACK 784 AUDIO
    TITLE "31:cjc023_8042"
    INDEX 01 17:11:58
  TRACK 785 AUDIO
    TITLE "0:"
    INDEX 01 17:13:45
  TRACK 786 AUDIO
    TITLE "28:cjc023_8043"
    INDEX 01 17:14:39
  TRACK 787 AUDIO
    TITLE "0:"
    INDEX 01 17:15:70
  TRACK 788 AUDIO
    TITLE "29:cjc023_8044"
    INDEX 01 17:16:48
  TRACK 789 AUDIO
    TITLE "0:"
    INDEX 01 17:18:66
  TRACK 790 AUDIO
    TITLE "30:cjc023_8045"
    INDEX 01 17:19:11
  TRACK 791 AUDIO
    TITLE "0:"
    INDEX 01 17:21:53
  TRACK 792 AUDIO
    TITLE "31:cjc023_8046"
    INDEX 01 17:21:69
  TRACK 793 AUDIO
    TITLE "0:"
    INDEX 01 17:24:36
  TRACK 794 AUDIO
    TITLE "28:cjc023_8047"
    INDEX 01 17:25:29
  TRACK 795 AUDIO
    TITLE "0:"
    INDEX 01 17:26:68
  TRACK 796 AUDIO
    TITLE "29:cjc023_8048"
    INDEX 01 17:27:38
  TRACK 797 AUDIO
    TITLE "0:"
    INDEX 01 17:30:58
  TRACK 798 AUDIO
    TITLE "30:cjc023_8049"
    INDEX 01 17:31:04
  TRACK 799 AUDIO
    TITLE "0:"
    INDEX 01 17:34:24
  TRACK 800 AUDIO
    TITLE "31:cjc023_8050"
    INDEX 01 17:34:44
  TRACK 801 AUDIO
    TITLE "0:"
    INDEX 01 17:37:64
